<svg viewBox="0 0 1440 320" preserveAspectRatio="none" xmlns="http://www.w3.org/2000/svg">
  <path d="M1001,84 Q1033,60 1069,30 L1077,20 L1097,20 L1105,30 Q1141,60 1173,84 Z" fill="rgba(255,255,255,0.55)"/>
  <path d="M0,220 L80,180 L160,200 L240,140 L320,160 L400,100 L480,130 L560,90 L640,120 L720,70 L800,110 L880,80 L960,115 L1040,85 L1120,120 L1200,95 L1280,140 L1360,115 L1440,150 L1440,320 L0,320 Z" fill="rgba(160,200,185,0.45)"/>
  <path d="M0,260 L60,230 L120,245 L200,200 L280,220 L360,175 L440,195 L520,165 L600,185 L680,150 L760,175 L840,145 L920,170 L1000,155 L1080,180 L1160,160 L1240,185 L1320,170 L1440,195 L1440,320 L0,320 Z" fill="rgba(130,180,160,0.55)"/>
  <path d="M0,290 L100,270 L200,280 L300,255 L400,268 L500,250 L600,265 L700,248 L800,260 L900,245 L1000,258 L1100,242 L1200,255 L1300,268 L1440,258 L1440,320 L0,320 Z" fill="rgba(100,155,135,0.65)"/>
  <path d="M0,308 L1440,305 L1440,320 L0,320 Z" fill="#7AA898"/>
</svg>
